<svg width="182" height="38" viewBox="0 0 182 38" fill="none" xmlns="http://www.w3.org/2000/svg">
<circle cx="19" cy="19" r="17.5" stroke="#F2615F" stroke-width="3"/>
<path d="M19.32 28.288C18.232 28.288 17.192 28.136 16.2 27.832C15.224 27.512 14.416 27.056 13.776 26.464C13.344 26.064 13.032 25.632 12.84 25.168C12.632 24.704 12.528 24.216 12.528 23.704C12.528 23.176 12.672 22.752 12.96 22.432C13.248 22.096 13.64 21.928 14.136 21.928C14.6 21.928 15.008 22.064 15.36 22.336C15.712 22.592 15.96 23.016 16.104 23.608C16.312 24.408 16.648 25.008 17.112 25.408C17.592 25.792 18.144 25.984 18.768 25.984C19.36 25.984 19.832 25.816 20.184 25.48C20.552 25.144 20.736 24.672 20.736 24.064C20.736 23.376 20.488 22.8 19.992 22.336C19.512 21.872 18.816 21.488 17.904 21.184C16.176 20.592 14.936 19.856 14.184 18.976C13.448 18.08 13.08 16.928 13.08 15.52C13.08 14.656 13.328 13.872 13.824 13.168C14.336 12.464 15.064 11.912 16.008 11.512C16.952 11.112 18.056 10.912 19.32 10.912C20.312 10.912 21.28 11.064 22.224 11.368C23.168 11.672 23.944 12.104 24.552 12.664C24.888 12.952 25.168 13.312 25.392 13.744C25.616 14.224 25.728 14.728 25.728 15.256C25.728 15.72 25.592 16.112 25.32 16.432C25.064 16.736 24.704 16.888 24.24 16.888C23.808 16.888 23.424 16.792 23.088 16.6C22.752 16.392 22.512 16.016 22.368 15.472C22.16 14.688 21.832 14.112 21.384 13.744C20.952 13.36 20.44 13.168 19.848 13.168C19.32 13.168 18.88 13.312 18.528 13.6C18.176 13.888 18 14.28 18 14.776C18 15.4 18.232 15.92 18.696 16.336C19.16 16.752 19.968 17.128 21.12 17.464C23.056 18.04 24.424 18.784 25.224 19.696C26.024 20.608 26.424 21.736 26.424 23.08C26.424 24.12 26.128 25.032 25.536 25.816C24.96 26.6 24.136 27.208 23.064 27.64C21.992 28.072 20.744 28.288 19.32 28.288Z" fill="#F2615F"/>
<path d="M45.2284 30.0223C44.4839 30.0223 44.1117 29.7543 44.1117 29.2183C44.1117 29.0247 44.201 28.8386 44.3797 28.6599C44.5584 28.4812 44.7817 28.3398 45.0497 28.2356C45.4369 28.0867 45.7347 27.8856 45.9431 27.6325C46.1665 27.3645 46.3749 26.9625 46.5685 26.4264L50.142 17.1799C50.1867 17.0459 50.209 16.9044 50.209 16.7555C50.209 16.5471 50.1718 16.3609 50.0974 16.1972C50.0229 16.0334 49.9112 15.9143 49.7624 15.8398C49.405 15.6462 49.2263 15.3708 49.2263 15.0134C49.2263 14.8199 49.3082 14.6412 49.472 14.4774C49.6358 14.3136 49.9112 14.2317 50.2984 14.2317H52.3308C53.0604 14.2317 53.6486 14.3434 54.0953 14.5667C54.5569 14.7901 54.8919 15.0581 55.1003 15.3708C55.3088 15.6835 55.5024 16.0557 55.681 16.4875L59.679 26.7615C59.813 27.1188 59.947 27.3868 60.081 27.5655C60.2299 27.7293 60.4532 27.8856 60.751 28.0345C61.1828 28.2728 61.3987 28.6152 61.3987 29.0619C61.3987 29.6873 60.9371 30 60.014 30H56.0607C55.1971 30 54.5941 29.9553 54.2516 29.866C53.924 29.7767 53.7603 29.5459 53.7603 29.1736C53.7603 29.0247 53.79 28.8982 53.8496 28.7939C53.9092 28.6897 54.0059 28.5929 54.14 28.5036C54.3782 28.3398 54.5494 28.1909 54.6536 28.0569C54.7579 27.908 54.81 27.7293 54.81 27.5208C54.81 27.3868 54.7728 27.1933 54.6983 26.9401L54.5196 26.4041C54.4303 26.151 54.2814 25.95 54.0729 25.8011C53.8794 25.6373 53.6709 25.5554 53.4476 25.5554H49.874C49.5464 25.5554 49.3082 25.5926 49.1593 25.6671C49.0253 25.7415 48.9062 25.9128 48.802 26.1808L48.6456 26.6498C48.5116 27.0518 48.4446 27.372 48.4446 27.6102C48.4446 27.8186 48.4893 27.9899 48.5786 28.1239C48.668 28.2579 48.8168 28.3621 49.0253 28.4366C49.5167 28.6152 49.7624 28.8833 49.7624 29.2406C49.7624 29.7618 49.3529 30.0223 48.5339 30.0223H45.2284ZM52.7552 23.6569C52.9785 23.6569 53.1647 23.6123 53.3136 23.5229C53.4774 23.4187 53.5295 23.2921 53.4699 23.1432L52.0628 18.8103C52.033 18.6912 51.9884 18.6019 51.9288 18.5423C51.8693 18.4679 51.8097 18.4306 51.7501 18.4306C51.6161 18.4306 51.5045 18.5572 51.4151 18.8103L49.874 23.1209C49.7996 23.3145 49.8442 23.4559 50.008 23.5453C50.1718 23.6197 50.3803 23.6569 50.6334 23.6569H52.7552ZM51.1694 13.7403C50.7674 13.7403 50.5664 13.584 50.5664 13.2713C50.5813 13.0033 50.9014 12.43 51.5268 11.5515C51.8246 11.1346 51.966 10.9336 51.9512 10.9485C52.1596 10.6209 52.3978 10.4199 52.6659 10.3455C52.9488 10.271 53.4178 10.2338 54.0729 10.2338C54.7132 10.2338 55.1376 10.2859 55.346 10.3901C55.5694 10.4795 55.681 10.673 55.681 10.9708C55.681 11.2686 55.3832 11.6409 54.7877 12.0876C54.1921 12.5194 53.5146 12.9065 52.7552 13.249C52.0107 13.5766 51.4821 13.7403 51.1694 13.7403ZM64.7306 30.1563C63.6139 30.1563 62.8545 30.0893 62.4525 29.9553C62.0653 29.8064 61.8718 29.5682 61.8718 29.2406C61.8718 28.9279 62.0356 28.6823 62.3631 28.5036C62.7949 28.2802 63.063 27.9899 63.1672 27.6325C63.2714 27.2752 63.3235 26.7242 63.3235 25.9798V18.0509C63.3235 17.6787 63.2789 17.3883 63.1895 17.1799C63.1151 16.9714 62.9662 16.8449 62.7428 16.8002C62.4301 16.7257 62.1919 16.6439 62.0281 16.5545C61.8643 16.4503 61.7824 16.3014 61.7824 16.1078C61.7824 15.8696 61.8643 15.6909 62.0281 15.5718C62.2068 15.4378 62.4897 15.2963 62.8768 15.1474C64.4551 14.5369 65.624 14.2317 66.3834 14.2317C66.7705 14.2317 67.046 14.2987 67.2098 14.4327C67.3735 14.5518 67.4554 14.7826 67.4554 15.1251V25.9574C67.4554 26.7168 67.5076 27.2677 67.6118 27.6102C67.716 27.9378 67.9766 28.2281 68.3935 28.4812C68.5722 28.5855 68.7062 28.6971 68.7955 28.8163C68.8849 28.9205 68.9295 29.0619 68.9295 29.2406C68.9295 29.464 68.8625 29.6426 68.7285 29.7767C68.5945 29.8958 68.3191 29.9851 67.9021 30.0447C67.5001 30.1191 66.9045 30.1563 66.1154 30.1563H64.7306ZM75.3117 30.0893C74.7161 30.0893 74.2768 30.0149 73.9939 29.866C73.711 29.7022 73.4728 29.397 73.2792 28.9503C72.9516 28.1462 72.5049 26.955 71.9391 25.3767C71.8051 25.0343 71.6041 24.4982 71.3361 23.7686C71.0681 23.0241 70.815 22.369 70.5767 21.8032C70.4427 21.4756 70.3087 21.2299 70.1747 21.0661C70.0556 20.9023 69.9067 20.7609 69.728 20.6418C69.5493 20.5226 69.4153 20.4035 69.326 20.2844C69.2515 20.1653 69.2143 20.0015 69.2143 19.793C69.2143 19.391 69.3781 19.1379 69.7057 19.0337C70.0481 18.9294 70.6512 18.8773 71.5148 18.8773H73.9269C74.597 18.8773 75.0958 18.9145 75.4233 18.989C75.7658 19.0486 75.9892 19.1379 76.0934 19.257C76.1976 19.3761 76.2497 19.5399 76.2497 19.7484C76.2497 19.8973 76.1976 20.0536 76.0934 20.2174C75.9892 20.3663 75.8328 20.4929 75.6244 20.5971C75.3712 20.7311 75.1777 20.8651 75.0437 20.9991C74.9245 21.1331 74.8948 21.2969 74.9543 21.4905C75.1479 22.1159 75.4085 22.8752 75.736 23.7686C76.0636 24.6471 76.3614 25.4065 76.6294 26.0468C76.689 26.2105 76.7783 26.2924 76.8974 26.2924C77.0017 26.2924 77.1133 26.2105 77.2325 26.0468C77.5898 25.5256 77.8578 25.0491 78.0365 24.6173C78.2301 24.1706 78.3269 23.7388 78.3269 23.3219C78.3269 22.8008 78.1631 22.3318 77.8355 21.9148C77.5526 21.5724 77.359 21.2671 77.2548 20.9991C77.1655 20.7162 77.1208 20.4259 77.1208 20.1281C77.1208 19.592 77.3516 19.1975 77.8132 18.9443C78.111 18.7805 78.4311 18.6986 78.7735 18.6986C79.1756 18.6986 79.5404 18.8252 79.8679 19.0783C80.1211 19.2719 80.3221 19.5399 80.471 19.8824C80.7241 20.4184 80.8507 21.0438 80.8507 21.7585C80.8507 22.6817 80.5678 23.7463 80.002 24.9524C79.4361 26.1584 78.7587 27.2901 77.9695 28.3472C77.493 29.0024 77.0836 29.4565 76.7411 29.7096C76.3986 29.9628 75.9817 30.0893 75.4903 30.0893H75.3117ZM84.513 30.268C83.173 30.268 82.2051 29.9702 81.6095 29.3746C81.0139 28.7641 80.7161 27.9899 80.7161 27.0518C80.7161 25.9798 81.1852 25.1161 82.1232 24.461C83.0613 23.791 84.2822 23.3964 85.7861 23.2773C86.2626 23.2326 86.6125 23.1805 86.8358 23.1209C87.0741 23.0614 87.2304 22.972 87.3049 22.8529C87.3942 22.7189 87.424 22.5328 87.3942 22.2945L87.3495 21.9148C87.29 21.4384 87.1634 21.081 86.9699 20.8428C86.7912 20.6045 86.4859 20.4854 86.0541 20.4854C85.7117 20.4854 85.399 20.5896 85.1161 20.7981C84.8481 21.0066 84.6619 21.3192 84.5577 21.7362C84.4386 22.1977 84.2376 22.5402 83.9547 22.7636C83.6718 22.9869 83.2772 23.0986 82.7709 23.0986C82.4582 23.0986 82.1753 22.9869 81.9222 22.7636C81.6691 22.5402 81.5425 22.2424 81.5425 21.8702C81.5425 21.2597 81.7882 20.7162 82.2796 20.2397C82.7858 19.7484 83.4559 19.3687 84.2897 19.1007C85.1384 18.8327 86.0541 18.6986 87.0369 18.6986C88.1089 18.6986 88.9502 18.855 89.5607 19.1677C90.1861 19.4655 90.6402 19.8973 90.9231 20.4631C91.206 21.0289 91.407 21.7436 91.5261 22.6072L92.0398 26.4488C92.0994 26.8359 92.1738 27.0965 92.2632 27.2305C92.3674 27.3496 92.5089 27.4092 92.6875 27.4092C92.8513 27.4092 93.0002 27.3794 93.1342 27.3198C93.2831 27.2454 93.3948 27.2082 93.4693 27.2082C93.8117 27.2082 93.983 27.4166 93.983 27.8335C93.983 28.1909 93.8564 28.5557 93.6033 28.9279C93.365 29.2853 93.03 29.5831 92.5982 29.8213C92.1813 30.0596 91.7197 30.1787 91.2134 30.1787C90.5285 30.1787 89.9925 30.0521 89.6054 29.799C89.2331 29.531 88.9502 29.1513 88.7566 28.6599C88.6971 28.4961 88.6226 28.4142 88.5333 28.4142C88.4886 28.4142 88.3397 28.5855 88.0866 28.9279C87.8484 29.2555 87.4389 29.5608 86.8582 29.8437C86.2924 30.1266 85.5107 30.268 84.513 30.268ZM86.4115 28.0345C86.8433 28.0345 87.2006 27.8633 87.4836 27.5208C87.7665 27.1635 87.9079 26.687 87.9079 26.0914C87.9079 26.0021 87.893 25.8234 87.8632 25.5554L87.8409 25.3991C87.7962 25.0715 87.6846 24.8556 87.5059 24.7513C87.3421 24.6471 87.0443 24.595 86.6125 24.595C85.466 24.595 84.8927 25.1832 84.8927 26.3594C84.8927 26.9104 85.0267 27.3273 85.2948 27.6102C85.5777 27.8931 85.9499 28.0345 86.4115 28.0345ZM97.3825 30.1563C96.2658 30.1563 95.5064 30.0893 95.1044 29.9553C94.7173 29.8064 94.5237 29.5682 94.5237 29.2406C94.5237 28.9279 94.6875 28.6823 95.0151 28.5036C95.4469 28.2802 95.7149 27.9899 95.8191 27.6325C95.9233 27.2752 95.9754 26.7242 95.9754 25.9798V22.6519C95.9754 22.2796 95.9308 21.9893 95.8414 21.7808C95.767 21.5724 95.6181 21.4458 95.3947 21.4011C95.0821 21.3267 94.8438 21.2448 94.68 21.1555C94.5162 21.0512 94.4344 20.9023 94.4344 20.7088C94.4344 20.4705 94.5162 20.2919 94.68 20.1727C94.8587 20.0387 95.1416 19.8973 95.5288 19.7484C97.1071 19.1379 98.2759 18.8327 99.0353 18.8327C99.4224 18.8327 99.6979 18.8997 99.8617 19.0337C100.025 19.1528 100.107 19.3836 100.107 19.726V20.4631C100.107 20.7907 100.145 20.9544 100.219 20.9544C100.249 20.9544 100.383 20.746 100.621 20.3291C100.874 19.9122 101.217 19.5399 101.648 19.2123C102.095 18.8699 102.654 18.6986 103.324 18.6986C104.038 18.6986 104.597 18.9369 104.999 19.4134C105.401 19.8749 105.602 20.5524 105.602 21.4458C105.602 22.0265 105.408 22.5625 105.021 23.0539C104.649 23.5304 104.165 23.7686 103.569 23.7686C103.152 23.7686 102.795 23.6569 102.497 23.4336C102.214 23.1954 102.073 22.8455 102.073 22.3839C102.073 22.1605 102.036 21.9818 101.961 21.8478C101.902 21.6989 101.753 21.6245 101.514 21.6245C101.127 21.6245 100.792 21.9074 100.509 22.4732C100.241 23.039 100.107 23.7091 100.107 24.4833V25.9574C100.107 26.7168 100.159 27.2677 100.264 27.6102C100.368 27.9378 100.629 28.2281 101.045 28.4812C101.224 28.5855 101.358 28.6971 101.447 28.8163C101.537 28.9205 101.581 29.0619 101.581 29.2406C101.581 29.464 101.514 29.6426 101.38 29.7767C101.246 29.8958 100.971 29.9851 100.554 30.0447C100.152 30.1191 99.5564 30.1563 98.7673 30.1563H97.3825ZM112.652 30.268C111.371 30.268 110.232 30.0223 109.234 29.531C108.237 29.0247 107.463 28.3323 106.912 27.4538C106.361 26.5753 106.085 25.5852 106.085 24.4833C106.085 23.3666 106.361 22.369 106.912 21.4905C107.463 20.612 108.237 19.9271 109.234 19.4357C110.232 18.9443 111.371 18.6986 112.652 18.6986C113.917 18.6986 115.041 18.9443 116.024 19.4357C117.022 19.9271 117.796 20.612 118.347 21.4905C118.898 22.369 119.173 23.3666 119.173 24.4833C119.173 25.6001 118.898 26.5977 118.347 27.4762C117.796 28.3547 117.022 29.0396 116.024 29.531C115.041 30.0223 113.917 30.268 112.652 30.268ZM113.009 28.5259C113.56 28.5259 113.999 28.3175 114.327 27.9005C114.654 27.4687 114.818 26.8657 114.818 26.0914C114.818 25.3618 114.714 24.5578 114.505 23.6793C114.297 22.7859 113.992 22.034 113.59 21.4235C113.203 20.7981 112.741 20.4854 112.205 20.4854C111.684 20.4854 111.259 20.7013 110.932 21.1331C110.604 21.55 110.44 22.1307 110.44 22.8752C110.44 23.6346 110.537 24.461 110.731 25.3544C110.939 26.2329 111.237 26.9848 111.624 27.6102C112.026 28.2207 112.488 28.5259 113.009 28.5259ZM133.237 30.268C132.224 30.268 131.256 30.1266 130.333 29.8437C129.425 29.5459 128.673 29.1215 128.077 28.5706C127.675 28.1983 127.385 27.7963 127.206 27.3645C127.013 26.9327 126.916 26.4786 126.916 26.0021C126.916 25.5107 127.05 25.1161 127.318 24.8184C127.586 24.5057 127.951 24.3493 128.412 24.3493C128.844 24.3493 129.224 24.4759 129.551 24.729C129.879 24.9672 130.11 25.3618 130.244 25.9128C130.437 26.6572 130.75 27.2156 131.182 27.5879C131.629 27.9452 132.142 28.1239 132.723 28.1239C133.274 28.1239 133.713 27.9675 134.041 27.6549C134.383 27.3422 134.554 26.9029 134.554 26.3371C134.554 25.6968 134.324 25.1608 133.862 24.729C133.415 24.2972 132.768 23.9399 131.919 23.6569C130.311 23.106 129.157 22.4211 128.457 21.6022C127.772 20.7683 127.43 19.6963 127.43 18.386C127.43 17.5819 127.66 16.8523 128.122 16.1972C128.599 15.542 129.276 15.0283 130.155 14.6561C131.033 14.2838 132.06 14.0977 133.237 14.0977C134.16 14.0977 135.061 14.2392 135.939 14.5221C136.818 14.805 137.54 15.207 138.106 15.7281C138.418 15.9961 138.679 16.3312 138.887 16.7332C139.096 17.1799 139.2 17.6489 139.2 18.1403C139.2 18.5721 139.074 18.9369 138.82 19.2347C138.582 19.5176 138.247 19.659 137.815 19.659C137.413 19.659 137.056 19.5697 136.743 19.391C136.431 19.1975 136.207 18.8475 136.073 18.3413C135.88 17.6117 135.574 17.0757 135.157 16.7332C134.755 16.3758 134.279 16.1972 133.728 16.1972C133.237 16.1972 132.827 16.3312 132.5 16.5992C132.172 16.8672 132.008 17.232 132.008 17.6936C132.008 18.2743 132.224 18.7582 132.656 19.1453C133.088 19.5325 133.84 19.8824 134.912 20.1951C136.713 20.7311 137.987 21.4235 138.731 22.2722C139.476 23.1209 139.848 24.1706 139.848 25.4214C139.848 26.3892 139.572 27.2379 139.021 27.9675C138.485 28.6971 137.719 29.263 136.721 29.665C135.723 30.067 134.562 30.268 133.237 30.268ZM147.506 30.268C146.225 30.268 145.086 30.0223 144.089 29.531C143.091 29.0247 142.317 28.3323 141.766 27.4538C141.215 26.5753 140.94 25.5852 140.94 24.4833C140.94 23.3666 141.215 22.369 141.766 21.4905C142.317 20.612 143.091 19.9271 144.089 19.4357C145.086 18.9443 146.225 18.6986 147.506 18.6986C148.772 18.6986 149.896 18.9443 150.878 19.4357C151.876 19.9271 152.65 20.612 153.201 21.4905C153.752 22.369 154.028 23.3666 154.028 24.4833C154.028 25.6001 153.752 26.5977 153.201 27.4762C152.65 28.3547 151.876 29.0396 150.878 29.531C149.896 30.0223 148.772 30.268 147.506 30.268ZM147.863 28.5259C148.414 28.5259 148.853 28.3175 149.181 27.9005C149.509 27.4687 149.672 26.8657 149.672 26.0914C149.672 25.3618 149.568 24.5578 149.36 23.6793C149.151 22.7859 148.846 22.034 148.444 21.4235C148.057 20.7981 147.595 20.4854 147.059 20.4854C146.538 20.4854 146.114 20.7013 145.786 21.1331C145.459 21.55 145.295 22.1307 145.295 22.8752C145.295 23.6346 145.392 24.461 145.585 25.3544C145.794 26.2329 146.091 26.9848 146.479 27.6102C146.881 28.2207 147.342 28.5259 147.863 28.5259ZM160.081 30.2457C158.83 30.2457 157.87 29.9479 157.2 29.3523C156.53 28.7418 156.195 27.7665 156.195 26.4264V21.2895C156.195 20.9172 156.023 20.7311 155.681 20.7311H155.301C155.078 20.7311 154.907 20.6567 154.788 20.5078C154.683 20.344 154.631 20.1653 154.631 19.9717C154.631 19.6144 154.795 19.2347 155.123 18.8327L155.547 18.2966C156.098 17.5968 156.716 16.9938 157.401 16.4875C158.19 15.9217 158.934 15.6388 159.634 15.6388C159.902 15.6388 160.081 15.7132 160.17 15.8621C160.26 16.011 160.304 16.2567 160.304 16.5992V17.8053C160.304 18.1775 160.312 18.4455 160.327 18.6093C160.356 18.7582 160.401 18.855 160.461 18.8997C160.52 18.9443 160.632 18.9667 160.796 18.9667H163.23C163.483 18.9667 163.647 19.0039 163.721 19.0783C163.811 19.1379 163.855 19.3166 163.855 19.6144C163.855 19.9717 163.759 20.2472 163.565 20.4408C163.386 20.6343 163.148 20.7311 162.85 20.7311H160.93C160.513 20.7311 160.304 20.9321 160.304 21.3341V25.8011C160.304 26.3371 160.423 26.754 160.662 27.0518C160.9 27.3496 161.235 27.4985 161.667 27.4985C161.92 27.4985 162.195 27.4464 162.493 27.3422C162.791 27.2379 163.059 27.0593 163.297 26.8061C163.431 26.6572 163.587 26.5828 163.766 26.5828C163.93 26.5828 164.056 26.6498 164.146 26.7838C164.25 26.9029 164.287 27.0518 164.257 27.2305C164.064 28.2132 163.61 28.9652 162.895 29.4863C162.195 29.9926 161.257 30.2457 160.081 30.2457ZM171.476 30.268C170.196 30.268 169.057 30.0223 168.059 29.531C167.062 29.0247 166.287 28.3323 165.736 27.4538C165.186 26.5753 164.91 25.5852 164.91 24.4833C164.91 23.3666 165.186 22.369 165.736 21.4905C166.287 20.612 167.062 19.9271 168.059 19.4357C169.057 18.9443 170.196 18.6986 171.476 18.6986C172.742 18.6986 173.866 18.9443 174.849 19.4357C175.847 19.9271 176.621 20.612 177.172 21.4905C177.723 22.369 177.998 23.3666 177.998 24.4833C177.998 25.6001 177.723 26.5977 177.172 27.4762C176.621 28.3547 175.847 29.0396 174.849 29.531C173.866 30.0223 172.742 30.268 171.476 30.268ZM171.834 28.5259C172.385 28.5259 172.824 28.3175 173.152 27.9005C173.479 27.4687 173.643 26.8657 173.643 26.0914C173.643 25.3618 173.539 24.5578 173.33 23.6793C173.122 22.7859 172.817 22.034 172.415 21.4235C172.027 20.7981 171.566 20.4854 171.03 20.4854C170.509 20.4854 170.084 20.7013 169.757 21.1331C169.429 21.55 169.265 22.1307 169.265 22.8752C169.265 23.6346 169.362 24.461 169.556 25.3544C169.764 26.2329 170.062 26.9848 170.449 27.6102C170.851 28.2207 171.313 28.5259 171.834 28.5259Z" fill="#F2615F"/>
</svg>
