<svg width="20" height="20" viewBox="0 0 20 20" fill="none" xmlns="http://www.w3.org/2000/svg">
<path d="M10 15C8.67392 15 7.40215 14.4732 6.46447 13.5355C5.52678 12.5979 5 11.3261 5 10C5 8.67392 5.52678 7.40215 6.46447 6.46447C7.40215 5.52678 8.67392 5 10 5C11.3261 5 12.5979 5.52678 13.5355 6.46447C14.4732 7.40215 15 8.67392 15 10C15 11.3261 14.4732 12.5979 13.5355 13.5355C12.5979 14.4732 11.3261 15 10 15ZM10 0C10.2652 0 10.5196 0.105357 10.7071 0.292893C10.8946 0.48043 11 0.734784 11 1V3C11 3.26522 10.8946 3.51957 10.7071 3.70711C10.5196 3.89464 10.2652 4 10 4C9.73478 4 9.48043 3.89464 9.29289 3.70711C9.10536 3.51957 9 3.26522 9 3V1C9 0.734784 9.10536 0.48043 9.29289 0.292893C9.48043 0.105357 9.73478 0 10 0ZM10 16C10.2652 16 10.5196 16.1054 10.7071 16.2929C10.8946 16.4804 11 16.7348 11 17V19C11 19.2652 10.8946 19.5196 10.7071 19.7071C10.5196 19.8946 10.2652 20 10 20C9.73478 20 9.48043 19.8946 9.29289 19.7071C9.10536 19.5196 9 19.2652 9 19V17C9 16.7348 9.10536 16.4804 9.29289 16.2929C9.48043 16.1054 9.73478 16 10 16ZM1 9H3C3.26522 9 3.51957 9.10536 3.70711 9.29289C3.89464 9.48043 4 9.73478 4 10C4 10.2652 3.89464 10.5196 3.70711 10.7071C3.51957 10.8946 3.26522 11 3 11H1C0.734784 11 0.48043 10.8946 0.292893 10.7071C0.105357 10.5196 0 10.2652 0 10C0 9.73478 0.105357 9.48043 0.292893 9.29289C0.48043 9.10536 0.734784 9 1 9ZM17 9H19C19.2652 9 19.5196 9.10536 19.7071 9.29289C19.8946 9.48043 20 9.73478 20 10C20 10.2652 19.8946 10.5196 19.7071 10.7071C19.5196 10.8946 19.2652 11 19 11H17C16.7348 11 16.4804 10.8946 16.2929 10.7071C16.1054 10.5196 16 10.2652 16 10C16 9.73478 16.1054 9.48043 16.2929 9.29289C16.4804 9.10536 16.7348 9 17 9ZM17.071 2.929C17.2585 3.11653 17.3638 3.37084 17.3638 3.636C17.3638 3.90116 17.2585 4.15547 17.071 4.343L15.657 5.757C15.5648 5.85251 15.4544 5.92869 15.3324 5.9811C15.2104 6.03351 15.0792 6.0611 14.9464 6.06225C14.8136 6.0634 14.6819 6.0381 14.559 5.98782C14.4361 5.93754 14.3245 5.86329 14.2306 5.76939C14.1367 5.6755 14.0625 5.56385 14.0122 5.44095C13.9619 5.31806 13.9366 5.18638 13.9377 5.0536C13.9389 4.92082 13.9665 4.7896 14.0189 4.6676C14.0713 4.54559 14.1475 4.43525 14.243 4.343L15.657 2.929C15.8445 2.74153 16.0988 2.63621 16.364 2.63621C16.6292 2.63621 16.8835 2.74153 17.071 2.929ZM5.757 14.243C5.94447 14.4305 6.04979 14.6848 6.04979 14.95C6.04979 15.2152 5.94447 15.4695 5.757 15.657L4.343 17.071C4.25075 17.1665 4.14041 17.2427 4.0184 17.2951C3.8964 17.3475 3.76518 17.3751 3.6324 17.3762C3.49962 17.3774 3.36794 17.3521 3.24505 17.3018C3.12215 17.2515 3.0105 17.1773 2.9166 17.0834C2.82271 16.9895 2.74846 16.8778 2.69818 16.755C2.6479 16.6321 2.6226 16.5004 2.62375 16.3676C2.6249 16.2348 2.65249 16.1036 2.7049 15.9816C2.75731 15.8596 2.83349 15.7492 2.929 15.657L4.343 14.243C4.53053 14.0555 4.78484 13.9502 5.05 13.9502C5.31516 13.9502 5.56947 14.0555 5.757 14.243ZM4.343 2.929L5.757 4.343C5.93916 4.5316 6.03995 4.7842 6.03767 5.0464C6.0354 5.3086 5.93023 5.55941 5.74482 5.74482C5.55941 5.93023 5.3086 6.0354 5.0464 6.03767C4.7842 6.03995 4.5316 5.93916 4.343 5.757L2.93 4.343C2.74784 4.1544 2.64705 3.9018 2.64933 3.6396C2.6516 3.3774 2.75677 3.12659 2.94218 2.94118C3.12759 2.75577 3.3784 2.6506 3.6406 2.64833C3.9028 2.64605 4.1554 2.74684 4.344 2.929H4.343ZM15.657 14.243L17.071 15.657C17.2532 15.8456 17.354 16.0982 17.3517 16.3604C17.3494 16.6226 17.2442 16.8734 17.0588 17.0588C16.8734 17.2442 16.6226 17.3494 16.3604 17.3517C16.0982 17.354 15.8456 17.2532 15.657 17.071L14.243 15.657C14.1475 15.5648 14.0713 15.4544 14.0189 15.3324C13.9665 15.2104 13.9389 15.0792 13.9377 14.9464C13.9366 14.8136 13.9619 14.6819 14.0122 14.559C14.0625 14.4361 14.1367 14.3245 14.2306 14.2306C14.3245 14.1367 14.4361 14.0625 14.559 14.0122C14.6819 13.9619 14.8136 13.9366 14.9464 13.9377C15.0792 13.9389 15.2104 13.9665 15.3324 14.0189C15.4544 14.0713 15.5648 14.1475 15.657 14.243Z" fill="#714FD7"/>
</svg>
